<svg xmlns="http://www.w3.org/2000/svg" viewBox="0 0 21.73 60.49"><defs><style>.cls-1{fill:gray;}</style></defs><title>logo-svg</title><g id="Layer_2" data-name="Layer 2"><g id="Layer_1-2" data-name="Layer 1"><path class="cls-1" d="M18.46,31.58a10.71,10.71,0,0,0-7.25-3.13l7.34-9.8q3.18-4.38,3.18-8.14a9.86,9.86,0,0,0-3.27-7.37A10.72,10.72,0,0,0,10.78,0,10.4,10.4,0,0,0,3.16,3.18,10.39,10.39,0,0,0,0,10.8,10,10,0,0,0,2.85,18a9.09,9.09,0,0,0,6.78,3q.27,0,.71,0l1.07-.13L2.23,32.67A10.32,10.32,0,0,0,0,39.24,10,10,0,0,0,2.85,46.4a9.09,9.09,0,0,0,6.78,3q.27,0,.71,0c.29,0,.65.06,1.07,0L2.9,60.49H8.72l9.82-13.27c2.12-2.92,3.18-5.73,3.18-8.25A9.93,9.93,0,0,0,18.46,31.58Zm-7.6-14.94a5.91,5.91,0,0,1-4.33-1.8,6,6,0,0,1-1.78-4.4A5.81,5.81,0,0,1,6.55,6.2a5.85,5.85,0,0,1,4.29-1.78A5.9,5.9,0,0,1,15.18,6.2,5.91,5.91,0,0,1,17,10.53a5.91,5.91,0,0,1-1.8,4.33A5.87,5.87,0,0,1,10.86,16.64ZM15.18,43.3a5.87,5.87,0,0,1-4.31,1.78,5.91,5.91,0,0,1-4.33-1.8,6,6,0,0,1-1.78-4.4,5.81,5.81,0,0,1,1.8-4.25,5.85,5.85,0,0,1,4.29-1.78,5.9,5.9,0,0,1,4.33,1.78,6.12,6.12,0,0,1,0,8.67Z"/></g></g></svg>